<svg width="29" height="28" viewBox="0 0 29 28" fill="none" xmlns="http://www.w3.org/2000/svg">
<path d="M10.7292 1.64062V6.5625H8.7605V4.59375H2.85425V22.3125H4.823V23.2969C4.823 24.0967 5.11011 24.7837 5.68433 25.3579C6.27905 25.9526 6.97632 26.25 7.77612 26.25C8.57593 26.25 9.26294 25.9526 9.83716 25.3579C10.4319 24.7837 10.7292 24.0967 10.7292 23.2969V22.3125H26.4792V6.5625H22.5417V1.64062H10.7292ZM12.698 3.60938H20.573V8.53125H12.698V3.60938ZM4.823 6.5625H6.79175V20.3438H4.823V6.5625ZM8.7605 8.53125H10.7292V10.5H22.5417V8.53125H24.5105V20.3438H8.7605V8.53125ZM11.7136 12.4688V14.4375H13.6824V12.4688H11.7136ZM15.6511 12.4688V14.4375H17.6199V12.4688H15.6511ZM19.5886 12.4688V14.4375H21.5574V12.4688H19.5886ZM11.7136 16.4062V18.375H13.6824V16.4062H11.7136ZM15.6511 16.4062V18.375H17.6199V16.4062H15.6511ZM19.5886 16.4062V18.375H21.5574V16.4062H19.5886ZM6.79175 22.3125H8.7605V23.2969C8.7605 23.5635 8.65796 23.7993 8.45288 24.0044C8.26831 24.189 8.04272 24.2812 7.77612 24.2812C7.50952 24.2812 7.27368 24.189 7.0686 24.0044C6.88403 23.7993 6.79175 23.5635 6.79175 23.2969V22.3125Z" fill="black"/>
</svg>
